# xmcd CD database file
#
# Track frame offsets:
#	182
#	33962
#	55917
#	73315
#	93632
#	117142
#	134455
#	157667
#	179205
#	201595
#
# Disc length: 2997 seconds
#
# Revision: 3
# Processed by: cddbd v1.4PL0 Copyright (c) Steve Scherf et al.
# Submitted via: CDex 1.50beta9
#
DISCID=950bb30a
DTITLE=Susan Ashton - Susan Ashton
DYEAR=1993
DGENRE=Contemporary Christian
TTITLE0=Summer Solstice
TTITLE1=Waiting for Your Love to Come Down
TTITLE2=Remember Not
TTITLE3=There is a Line
TTITLE4=Heart Like a Rock
TTITLE5=Agree to Disagree
TTITLE6=Hold the Intangible
TTITLE7=Call of the Wild
TTITLE8=No Remedy for Love
TTITLE9=A Rose is a Rose
EXTD=YEAR: 1993
EXTT0=
EXTT1=
EXTT2=
EXTT3=
EXTT4=
EXTT5=
EXTT6=
EXTT7=
EXTT8=
EXTT9=
PLAYORDER=
